<?xml version="1.0" standalone="no"?>
<!DOCTYPE svg PUBLIC "-//W3C//DTD SVG 20010904//EN"
 "http://www.w3.org/TR/2001/REC-SVG-20010904/DTD/svg10.dtd">
<svg version="1.0" xmlns="http://www.w3.org/2000/svg"
 width="541.000000pt" height="541.000000pt" viewBox="0 0 541.000000 541.000000"
 preserveAspectRatio="xMidYMid meet">
<metadata>
Created by potrace 1.11, written by Peter Selinger 2001-2013
</metadata>
<g transform="translate(0.000000,541.000000) scale(0.100000,-0.100000)"
fill="#000000" stroke="none">
<path d="M2510 5404 c-131 -12 -347 -48 -463 -78 -362 -93 -727 -276 -1022
-513 -55 -44 -109 -90 -119 -101 l-19 -22 1675 0 c1849 0 1730 4 1819 -64 25
-18 58 -58 74 -87 l30 -54 3 -1772 2 -1773 -1420 0 -1420 0 0 -32 c-1 -78 -74
-178 -165 -226 -66 -34 -176 -37 -246 -5 -56 25 -117 84 -144 138 -20 39 -20
76 -25 1845 l-5 1805 -24 53 c-26 57 -102 133 -150 150 -28 10 -33 7 -123 -86
-398 -412 -644 -917 -735 -1512 -22 -144 -24 -546 -4 -690 86 -624 344 -1150
772 -1579 676 -676 1647 -942 2579 -706 139 35 318 99 461 164 116 53 349 185
409 231 25 19 13 20 -1345 21 -753 0 -1359 4 -1345 8 112 35 194 124 209 230
l6 46 1427 5 1427 5 72 80 c368 411 596 893 680 1436 19 118 23 188 23 384 1
250 -7 338 -49 547 -159 789 -678 1478 -1395 1852 -277 144 -559 234 -884 282
-98 14 -474 26 -566 18z"/>
<path d="M1937 4485 c-33 -33 -14 -50 64 -60 103 -13 86 23 240 -494 l139
-465 -70 -112 c-39 -61 -70 -121 -70 -132 0 -11 12 -30 26 -41 26 -21 36 -21
556 -21 l528 0 10 -25 c12 -31 35 -41 55 -25 24 20 18 59 -14 91 l-29 29 -526
0 c-289 0 -526 2 -526 5 0 6 101 167 114 182 8 9 151 20 495 38 265 14 491 30
502 35 10 6 24 20 30 33 7 12 38 154 70 316 53 268 57 297 44 327 -7 18 -22
37 -33 43 -12 6 -312 29 -678 51 -362 22 -658 41 -660 43 -1 1 -9 29 -19 62
-9 33 -22 66 -28 73 -21 25 -84 51 -143 57 -49 6 -63 4 -77 -10z"/>
<path d="M2233 3065 c-29 -20 -46 -75 -34 -107 31 -83 139 -89 176 -11 20 41
7 94 -28 118 -28 19 -86 19 -114 0z"/>
<path d="M3207 3060 c-71 -56 -25 -170 68 -170 41 0 85 50 85 97 0 21 -6 45
-13 54 -32 42 -99 51 -140 19z"/>
<path d="M1600 2405 l0 -165 165 0 165 0 0 165 0 165 -165 0 -165 0 0 -165z
m270 0 l0 -105 -105 0 -105 0 0 105 0 105 105 0 105 0 0 -105z"/>
<path d="M2235 2465 c-33 -32 -33 -84 -1 -122 l24 -28 879 -3 c483 -1 893 0
912 3 76 14 108 99 56 150 l-24 25 -911 0 -911 0 -24 -25z"/>
<path d="M1600 1925 l0 -165 165 0 165 0 0 165 0 165 -165 0 -165 0 0 -165z
m270 0 l0 -105 -105 0 -105 0 0 105 0 105 105 0 105 0 0 -105z"/>
<path d="M2241 1994 c-25 -20 -31 -34 -31 -64 0 -30 6 -44 31 -64 l31 -26 900
0 900 0 29 29 c46 46 38 110 -18 139 -16 9 -255 12 -917 12 l-894 0 -31 -26z"/>
<path d="M1600 1455 l0 -165 165 0 165 0 0 165 0 165 -165 0 -165 0 0 -165z
m270 0 l0 -105 -105 0 -105 0 0 105 0 105 105 0 105 0 0 -105z"/>
<path d="M2241 1514 c-25 -20 -31 -34 -31 -64 0 -30 6 -44 31 -64 l31 -26 900
0 900 0 29 29 c46 46 38 110 -18 139 -16 9 -255 12 -917 12 l-894 0 -31 -26z"/>
</g>
</svg>
